<svg width="68" height="59" fill="none" xmlns="http://www.w3.org/2000/svg"><path fill-rule="evenodd" clip-rule="evenodd" d="M0 8.429c0-2.236.896-4.38 2.49-5.96A8.537 8.537 0 0 1 8.5 0h57.375c.564 0 1.104.222 1.503.617a2.098 2.098 0 0 1 0 2.98 2.134 2.134 0 0 1-1.503.617H63.75v8.429c1.127 0 2.208.444 3.005 1.234A4.196 4.196 0 0 1 68 16.857V52.68a6.294 6.294 0 0 1-1.867 4.47A6.402 6.402 0 0 1 61.625 59h-51a10.67 10.67 0 0 1-7.513-3.086A10.491 10.491 0 0 1 0 48.464V8.43Zm4.25 7.299v32.736c0 1.677.672 3.285 1.867 4.47a6.403 6.403 0 0 0 4.508 1.852h51c.564 0 1.104-.222 1.503-.617.398-.396.622-.932.622-1.49V16.857H8.5a8.512 8.512 0 0 1-4.25-1.13Zm0-7.3c0 1.118.448 2.19 1.245 2.98A4.268 4.268 0 0 0 8.5 12.643h51V4.214h-51A4.268 4.268 0 0 0 5.495 5.45a4.196 4.196 0 0 0-1.245 2.98Z" fill="#23A6F0"/></svg>