<svg width="44" height="59" fill="none" xmlns="http://www.w3.org/2000/svg"><path fill-rule="evenodd" clip-rule="evenodd" d="M0 14.429c0-1.97.78-3.86 2.167-5.253A7.386 7.386 0 0 1 7.4 7h22.2c1.963 0 3.845.783 5.233 2.176A7.443 7.443 0 0 1 37 14.429v42.715a1.863 1.863 0 0 1-.977 1.636 1.844 1.844 0 0 1-1.898-.091L18.5 48.233 2.875 58.689a1.846 1.846 0 0 1-2.612-.592A1.863 1.863 0 0 1 0 57.144V14.429Zm7.4-3.715c-.981 0-1.922.392-2.616 1.088A3.721 3.721 0 0 0 3.7 14.43v39.246l13.775-9.22a1.845 1.845 0 0 1 2.05 0l13.775 9.22V14.429c0-.985-.39-1.93-1.084-2.627a3.693 3.693 0 0 0-2.616-1.088H7.4Z" fill="#23A6F0"/><path fill-rule="evenodd" clip-rule="evenodd" d="M8 3.643h28.602c.98 0 1.922.384 2.615 1.067a3.615 3.615 0 0 1 1.084 2.576v42.87l.825.539a1.868 1.868 0 0 0 2.61-.58 1.8 1.8 0 0 0 .264-.936V7.286a7.23 7.23 0 0 0-2.167-5.152A7.457 7.457 0 0 0 36.602 0H14.407a7.486 7.486 0 0 0-3.7.976A7.343 7.343 0 0 0 8 3.643Z" fill="#23A6F0"/></svg>