<svg width="24" height="20" fill="none" xmlns="http://www.w3.org/2000/svg"><path fill-rule="evenodd" clip-rule="evenodd" d="M-.919 2.592A3.345 3.345 0 0 1 .223.727 3.2 3.2 0 0 1 2.25 0h19.5a3.2 3.2 0 0 1 2.026.727c.576.471.979 1.128 1.143 1.865L12 10.69-.919 2.592ZM-1 4.495v11.84l9.43-5.93L-1 4.495Zm10.987 6.888L-.69 18.095c.264.57.68 1.052 1.2 1.39A3.19 3.19 0 0 0 2.25 20h19.5c.616 0 1.218-.179 1.738-.517.52-.337.937-.82 1.2-1.39l-10.676-6.711L12 12.643l-2.013-1.261v.001Zm5.583-.976L25 16.335V4.495l-9.43 5.91v.002Z" fill="#fff"/></svg>