<svg width="73" height="56" fill="none" xmlns="http://www.w3.org/2000/svg"><path fill-rule="evenodd" clip-rule="evenodd" d="M69.375 56S74 56 74 51.333c0-4.666-4.625-18.666-23.125-18.666s-23.125 14-23.125 18.666C27.75 56 32.375 56 32.375 56h37Zm-36.898-4.667h36.796c.022-.002.044-.005.065-.009l.037-.01c-.01-1.231-.772-4.806-3.515-8.026-2.553-3.02-7.04-5.955-14.985-5.955-7.941 0-12.427 2.94-14.985 5.955-2.743 3.22-3.51 6.8-3.515 8.027l.102.018Zm18.398-28a9.208 9.208 0 0 0 6.54-2.733 9.376 9.376 0 0 0 2.71-6.6c0-2.475-.975-4.85-2.71-6.6a9.208 9.208 0 0 0-6.54-2.733 9.208 9.208 0 0 0-6.54 2.733 9.376 9.376 0 0 0-2.71 6.6c0 2.475.975 4.85 2.71 6.6a9.208 9.208 0 0 0 6.54 2.733ZM64.75 14a14.11 14.11 0 0 1-1.056 5.358 14.01 14.01 0 0 1-3.008 4.541 13.868 13.868 0 0 1-4.501 3.035 13.767 13.767 0 0 1-10.62 0 13.868 13.868 0 0 1-4.501-3.035 14.01 14.01 0 0 1-3.008-4.541A14.11 14.11 0 0 1 37 14c0-3.713 1.462-7.274 4.064-9.9A13.812 13.812 0 0 1 50.875 0c3.68 0 7.209 1.475 9.811 4.1A14.064 14.064 0 0 1 64.75 14ZM32.079 33.973a26.982 26.982 0 0 0-5.689-1.152 33.649 33.649 0 0 0-3.265-.154C4.625 32.667 0 46.667 0 51.333 0 54.446 1.54 56 4.625 56h19.499a10.523 10.523 0 0 1-.999-4.667c0-4.713 1.744-9.529 5.041-13.552a24.57 24.57 0 0 1 3.913-3.808Zm-9.324 3.36c-7.714.094-12.094 2.987-14.615 5.955-2.761 3.239-3.515 6.827-3.515 8.045H18.5c0-4.876 1.494-9.734 4.255-14Zm-15.817-21c0-3.713 1.461-7.274 4.063-9.9a13.812 13.812 0 0 1 9.812-4.1c3.68 0 7.209 1.475 9.81 4.1a14.064 14.064 0 0 1 4.064 9.9c0 3.713-1.461 7.274-4.063 9.9a13.813 13.813 0 0 1-9.811 4.1c-3.68 0-7.21-1.475-9.812-4.1a14.064 14.064 0 0 1-4.063-9.9ZM20.813 7a9.208 9.208 0 0 0-6.541 2.734 9.376 9.376 0 0 0-2.71 6.6c0 2.475.975 4.849 2.71 6.599a9.208 9.208 0 0 0 6.54 2.734 9.208 9.208 0 0 0 6.541-2.734 9.376 9.376 0 0 0 2.71-6.6c0-2.475-.975-4.849-2.71-6.6A9.208 9.208 0 0 0 20.813 7Z" fill="#23A6F0"/></svg>